<svg width="23" height="25" viewBox="0 0 23 25" fill="none" xmlns="http://www.w3.org/2000/svg">
<path d="M21.2308 12.1817H21.0656C20.3874 8.88746 17.6805 6.41353 14.4487 6.41353H12.3846V5.59317C13.4108 5.1958 14.1538 4.1383 14.1538 2.88852C14.1538 1.29905 12.9626 0.00440936 11.5 0.00440936C10.0374 0.00440936 8.84615 1.29905 8.84615 2.88852C8.84615 4.1383 9.58923 5.1958 10.6154 5.59317V6.41353H8.55128C5.31949 6.41353 2.61256 8.88746 1.93436 12.1817H1.76923C0.796154 12.1817 0 13.047 0 14.1045V16.0272C0 17.0847 0.796154 17.95 1.76923 17.95H2.09359C2.78949 20.3085 4.54692 22.1415 6.75256 22.8081C6.58744 23.1862 6.48718 23.5964 6.48718 24.0386C6.48718 24.5706 6.88231 25 7.3718 25H15.6282C16.1177 25 16.5128 24.5706 16.5128 24.0386C16.5128 23.5964 16.4126 23.1798 16.2474 22.8081C18.4531 22.1479 20.2105 20.3085 20.9064 17.95H21.2308C22.2038 17.95 23 17.0847 23 16.0272V14.1045C23 13.047 22.2038 12.1817 21.2308 12.1817ZM11.5 1.92715C11.9895 1.92715 12.3846 2.35656 12.3846 2.88852C12.3846 3.42047 11.9895 3.84988 11.5 3.84988C11.0105 3.84988 10.6154 3.42047 10.6154 2.88852C10.6154 2.35656 11.0105 1.92715 11.5 1.92715ZM14.4487 21.1545H8.55128C5.78538 21.1545 3.53846 18.7126 3.53846 15.7068V13.784C3.53846 10.7781 5.78538 8.33627 8.55128 8.33627H14.4487C17.2146 8.33627 19.4615 10.7781 19.4615 13.784V15.7068C19.4615 18.7126 17.2146 21.1545 14.4487 21.1545Z" fill="#F5F5F5"/>
<path d="M8.25641 10.8999C7.28333 10.8999 6.48718 11.7652 6.48718 12.8227V14.7454C6.48718 15.8029 7.28333 16.6681 8.25641 16.6681C9.22949 16.6681 10.0256 15.8029 10.0256 14.7454V12.8227C10.0256 11.7652 9.22949 10.8999 8.25641 10.8999Z" fill="#F5F5F5"/>
<path d="M14.7436 10.8999C13.7705 10.8999 12.9744 11.7652 12.9744 12.8227V14.7454C12.9744 15.8029 13.7705 16.6681 14.7436 16.6681C15.7167 16.6681 16.5128 15.8029 16.5128 14.7454V12.8227C16.5128 11.7652 15.7167 10.8999 14.7436 10.8999Z" fill="#F5F5F5"/>
<path d="M5.32538 1.87587L7.09462 2.51679C7.18897 2.54883 7.28333 2.56806 7.3718 2.56806C7.74333 2.56806 8.08539 2.31169 8.20923 1.90792C8.36256 1.4016 8.11487 0.856823 7.64897 0.690186L5.87974 0.0492735C5.41974 -0.117364 4.91846 0.151819 4.75923 0.65814C4.6 1.16446 4.85359 1.70924 5.31949 1.87587H5.32538Z" fill="#F5F5F5"/>
<path d="M5.60256 5.77262C5.69692 5.77262 5.79128 5.7598 5.87974 5.72135L7.64897 5.08044C8.11487 4.9138 8.36256 4.36902 8.20923 3.8627C8.0559 3.35638 7.55462 3.0872 7.08872 3.25384L5.31949 3.89475C4.85359 4.06139 4.6059 4.60616 4.75923 5.11248C4.88308 5.51626 5.22513 5.77262 5.59667 5.77262H5.60256Z" fill="#F5F5F5"/>
<path d="M15.6282 2.56806C15.7226 2.56806 15.8169 2.55524 15.9054 2.51679L17.6746 1.87587C18.1405 1.70924 18.3882 1.16446 18.2349 0.65814C18.0815 0.151819 17.5803 -0.117364 17.1144 0.0492735L15.3451 0.690186C14.8792 0.856823 14.6315 1.4016 14.7849 1.90792C14.9087 2.31169 15.2508 2.56806 15.6223 2.56806H15.6282Z" fill="#F5F5F5"/>
<path d="M15.351 5.08044L17.1203 5.72135C17.2146 5.75339 17.309 5.77262 17.3974 5.77262C17.769 5.77262 18.111 5.51626 18.2349 5.11248C18.3882 4.60616 18.1405 4.06139 17.6746 3.89475L15.9054 3.25384C15.4454 3.0872 14.9382 3.35638 14.7849 3.8627C14.6315 4.36902 14.8792 4.9138 15.3451 5.08044H15.351Z" fill="#F5F5F5"/>
</svg>
