<svg width="24" height="24" viewBox="0 0 24 24" fill="none" xmlns="http://www.w3.org/2000/svg">
<path fill-rule="evenodd" clip-rule="evenodd" d="M18.2984 5.683C17.9184 5.751 17.3824 5.927 16.5224 6.213L10.0304 8.378C9.20241 8.654 8.61841 8.849 8.19841 9.013C8.04426 9.0711 7.89337 9.13753 7.74641 9.212C7.66041 9.257 7.63041 9.282 7.62841 9.282C7.53209 9.37524 7.45551 9.48689 7.4032 9.61033C7.35089 9.73376 7.32394 9.86644 7.32394 10.0005C7.32394 10.1346 7.35089 10.2672 7.4032 10.3907C7.45551 10.5141 7.53209 10.6258 7.62841 10.719C7.6654 10.7464 7.70491 10.7701 7.74641 10.79C7.84641 10.843 7.99141 10.908 8.19841 10.99C8.61841 11.153 9.20241 11.348 10.0304 11.624L10.0864 11.643C10.3594 11.733 10.5994 11.813 10.8204 11.93C11.3532 12.2117 11.7888 12.6472 12.0704 13.18C12.1874 13.4 12.2674 13.64 12.3574 13.914L12.3774 13.97C12.6524 14.798 12.8474 15.382 13.0114 15.802C13.069 15.9564 13.1355 16.1073 13.2104 16.254C13.2554 16.34 13.2804 16.37 13.2804 16.372C13.3737 16.4683 13.4853 16.5449 13.6087 16.5972C13.7322 16.6495 13.8649 16.6765 13.9989 16.6765C14.133 16.6765 14.2657 16.6495 14.3891 16.5972C14.5125 16.5449 14.6242 16.4683 14.7174 16.372C14.7448 16.335 14.7686 16.2955 14.7884 16.254C14.8414 16.154 14.9064 16.009 14.9884 15.801C15.1514 15.381 15.3464 14.798 15.6224 13.971L17.7854 7.48C18.0724 6.62 18.2484 6.082 18.3154 5.703L18.3204 5.68C18.3127 5.68131 18.3051 5.68264 18.2974 5.684M17.9474 3.715C18.4974 3.617 19.2524 3.588 19.8324 4.168C20.4124 4.748 20.3824 5.502 20.2854 6.053C20.1894 6.595 19.9624 7.274 19.7074 8.04L19.6834 8.112L17.5194 14.602L17.5094 14.632C17.2454 15.424 17.0354 16.056 16.8504 16.528C16.6774 16.973 16.4724 17.433 16.1624 17.755C15.8825 18.0463 15.5466 18.278 15.1749 18.4363C14.8032 18.5946 14.4034 18.6762 13.9994 18.6762C13.5954 18.6762 13.1956 18.5946 12.8239 18.4363C12.4522 18.278 12.1164 18.0463 11.8364 17.755C11.5264 17.433 11.3214 16.973 11.1484 16.528C10.9634 16.056 10.7534 15.424 10.4884 14.631L10.4784 14.603C10.3584 14.242 10.3314 14.17 10.3024 14.115C10.2085 13.9372 10.0632 13.7919 9.88541 13.698C9.83041 13.668 9.75841 13.642 9.39741 13.521L9.36941 13.511C8.57641 13.247 7.94441 13.037 7.47141 12.852C7.02741 12.679 6.56741 12.474 6.24541 12.164C5.95414 11.8841 5.7224 11.5482 5.56411 11.1765C5.40581 10.8048 5.32422 10.405 5.32422 10.001C5.32422 9.59701 5.40581 9.19719 5.56411 8.8255C5.7224 8.45382 5.95414 8.11794 6.24541 7.838C6.56741 7.528 7.02741 7.323 7.47141 7.15C8.09905 6.9158 8.73188 6.69574 9.36941 6.49L9.39741 6.48L15.8884 4.317L15.9604 4.293C16.7264 4.038 17.4054 3.811 17.9474 3.715Z" fill="white"/>
</svg>
